<svg xmlns="http://www.w3.org/2000/svg" xmlns:xlink="http://www.w3.org/1999/xlink" width="128" height="75" viewBox="0 0 128 75"><defs><style>.cls-1{fill:none;}.cls-2{fill:#7209b7;}.cls-3{clip-path:url(#clip-path);}.cls-4{fill:url(#linear-gradient);}.cls-5{fill:url(#linear-gradient-2);}</style><clipPath id="clip-path"><path class="cls-1" d="M91,.54A36.83,36.83,0,0,0,64,12.3a37,37,0,1,0,0,50.4A37,37,0,1,0,91,.54ZM37,54.61A17.11,17.11,0,1,1,54.07,37.5,17.11,17.11,0,0,1,37,54.61Zm54.08,0A17.11,17.11,0,1,1,108.15,37.5,17.1,17.1,0,0,1,91,54.61Z"/></clipPath><linearGradient id="linear-gradient" x1="119.11" y1="3.64" x2="46.32" y2="5.87" gradientUnits="userSpaceOnUse"><stop offset="0.31" stop-color="#7209b7"/><stop offset="0.47" stop-color="#6e09b1"/><stop offset="0.67" stop-color="#620aa1"/><stop offset="0.89" stop-color="#4e0a87"/><stop offset="1" stop-color="#420b77"/></linearGradient><linearGradient id="linear-gradient-2" x1="8.9" y1="56.67" x2="64.34" y2="56.67" gradientUnits="userSpaceOnUse"><stop offset="0.27" stop-color="#7209b7"/><stop offset="0.43" stop-color="#6e09b1"/><stop offset="0.64" stop-color="#620aa1"/><stop offset="0.88" stop-color="#4e0a87"/><stop offset="1" stop-color="#420b77"/></linearGradient></defs><g id="Layer_1" data-name="Layer 1"><path class="cls-2" d="M91,.54A36.83,36.83,0,0,0,64,12.3a37,37,0,1,0,0,50.4A37,37,0,1,0,91,.54ZM37,54.61A17.11,17.11,0,1,1,54.07,37.5,17.11,17.11,0,0,1,37,54.61Zm54.08,0A17.11,17.11,0,1,1,108.15,37.5,17.1,17.1,0,0,1,91,54.61Z"/><g class="cls-3"><path class="cls-4" d="M73.93,37.5c.18-.25-3.18-38-37-37.65V-26.84H142.37L91,37.5Z"/></g><g class="cls-3"><path class="cls-5" d="M54,36.43S53.32,52.94,64.31,63l0,12.81L8.9,77.2,37,36.13Z"/></g></g></svg>